<?xml version="1.0" encoding="utf-8"?>
<!-- Generator: Adobe Illustrator 26.3.1, SVG Export Plug-In . SVG Version: 6.00 Build 0)  -->
<svg version="1.1" id="Layer_1" xmlns="http://www.w3.org/2000/svg" xmlns:xlink="http://www.w3.org/1999/xlink" x="0px" y="0px"
	 viewBox="0 0 900 213.1" style="enable-background:new 0 0 900 213.1;" xml:space="preserve">
<style type="text/css">
	.st0{fill:#0084FF;}
</style>
<g>
	<g>
		<g>
			<path class="st0" d="M103.1,212.1c-15.3,0-29.2-2.7-41.8-8.1c-12.6-5.4-23.4-12.8-32.5-22.2c-9.1-9.4-16.2-20.3-21.2-32.8
				c-5-12.5-7.6-25.9-7.6-40.2C0,94,2.6,80.4,7.9,67.8C13.1,55.2,20.3,44.3,29.6,35c9.3-9.3,20.2-16.5,32.7-21.8
				C74.8,8,88.4,5.4,103.1,5.4c9.6,0,18.8,1.2,27.7,3.6c8.9,2.4,17.2,5.8,24.8,10.2c7.6,4.4,14.6,9.7,20.8,15.8
				c6.2,6.2,11.6,13,16,20.5L158.2,77c-5.3-10.5-12.6-18.7-21.9-24.7s-20.3-9-32.9-9c-9.2,0-17.7,1.7-25.5,5.1
				c-7.8,3.4-14.6,8-20.3,13.9S47.4,75.2,44.2,83.2c-3.2,8-4.8,16.5-4.8,25.5c0,8.8,1.6,17.2,4.7,25.1c3.1,7.9,7.5,14.8,13.2,20.7
				c5.7,5.9,12.4,10.5,20.1,13.9c7.7,3.4,16.2,5.1,25.4,5.1c13.8,0,25.5-3.4,35.1-10.3c9.6-6.9,17-15.8,21.9-26.9l35.6,19
				c-4.2,8.5-9.5,16.2-15.7,23.2c-6.3,7-13.3,13-21.1,17.9c-7.8,5-16.4,8.8-25.8,11.6C123.5,210.7,113.6,212.1,103.1,212.1z"/>
			<path class="st0" d="M310.4,212.1c-11.9,0-22.8-1.8-32.5-5.5c-9.7-3.7-18.1-9-25.1-15.8c-7-6.9-12.4-15.3-16.1-25.2
				c-3.8-9.9-5.7-21.1-5.7-33.6V8.1h39.7v124.6c0,12.5,3.6,22.6,10.9,30.3c7.3,7.7,16.9,11.6,28.8,11.6c11.9,0,21.6-3.9,28.9-11.6
				c7.4-7.7,11-17.8,11-30.3V8.1H390v123.8c0,12.5-1.9,23.7-5.8,33.6c-3.9,9.9-9.3,18.3-16.3,25.2c-7,6.9-15.3,12.2-25.1,15.8
				C333.1,210.3,322.3,212.1,310.4,212.1z"/>
			<path class="st0" d="M438.8,8.1h135.3v36.7h-96.5V90h96.5v36.7h-96.5v45.8h96.5v36.9H438.8V8.1z"/>
			<path class="st0" d="M696.5,212.1c-10.8,0-20.7-1-29.5-3c-8.8-2-16.8-4.9-24-8.5c-7.2-3.7-13.6-8-19.4-13.1
				c-5.8-5.1-11.1-10.6-15.8-16.7l33.9-27c6.6,10.5,14.4,18.4,23.4,23.7c9,5.3,19.6,8,31.7,8c11,0,19.3-2.3,24.8-7
				c5.5-4.7,8.3-10.7,8.3-18.1c0-4.6-1.1-8.4-3.4-11.4c-2.3-3-5.5-5.6-9.6-7.7c-4.1-2.1-9.1-3.9-14.9-5.2
				c-5.8-1.4-12.2-2.9-19.2-4.5c-7.5-1.7-15.1-3.6-22.6-5.9c-7.5-2.3-14.3-5.5-20.4-9.6c-6.1-4.1-11-9.5-14.9-16
				c-3.9-6.5-5.8-14.9-5.8-25.2c0-8.3,1.7-16,5.2-23.3c3.5-7.3,8.4-13.5,14.7-18.9c6.3-5.3,13.9-9.5,22.6-12.7
				c8.7-3.1,18.3-4.7,28.8-4.7c8.8,0,16.9,0.8,24.3,2.3c7.4,1.6,14.2,3.8,20.5,6.8c6.3,2.9,12.2,6.6,17.6,10.9
				c5.4,4.3,10.7,9.3,15.8,15L737,64.9c-5.3-7.7-11.6-13.8-18.9-18.3c-7.3-4.5-16.7-6.8-28.3-6.8c-11,0-19,2.3-23.8,7
				c-4.9,4.7-7.3,10.3-7.3,17c0,4,1.2,7.4,3.6,9.9c2.4,2.6,5.6,4.7,9.6,6.5c4,1.8,8.8,3.3,14.3,4.5c5.5,1.3,11.4,2.7,17.6,4.1
				c7.7,1.7,15.5,3.7,23.4,6.1c7.9,2.4,15,5.8,21.4,10.2c6.3,4.4,11.5,10.1,15.6,17.1c4,7,6.1,15.9,6.1,26.7
				c0,8.6-1.7,16.8-5.2,24.4c-3.5,7.6-8.5,14.3-14.9,20.1c-6.4,5.8-14.2,10.3-23.3,13.6C717.9,210.4,707.7,212.1,696.5,212.1z"/>
		</g>
	</g>
	<g>
		<path class="st0" d="M884.4,18.2c-4.8-4.9-10.4-8.8-16.8-11.6c-6.5-2.9-13.4-4.3-20.9-4.3c-7.6,0-14.7,1.4-21.1,4.3
			c-6.5,2.9-12,6.7-16.7,11.6c-4.7,4.9-8.4,10.6-11.1,17.2c-2.7,6.5-4.1,13.5-4.1,20.8s1.3,14.3,4,20.8s6.4,12.3,11.1,17.2
			c4.8,4.9,10.4,8.8,16.9,11.6c6.5,2.9,13.5,4.3,21.1,4.3c7.5,0,14.5-1.4,20.9-4.3c6.5-2.9,12.1-6.7,17-11.6
			c4.8-4.9,8.6-10.6,11.3-17.2c2.7-6.5,4.1-13.5,4.1-20.8s-1.4-14.3-4.2-20.8C893,28.8,889.2,23.1,884.4,18.2z M809.3,55.8
			c0-20.6,16.7-37.2,37.2-37.2c2.7,0,5.3,0.3,7.8,0.8l-31.8,44.4h21.6l-10.5,27C819.4,85.5,809.3,71.9,809.3,55.8z M846.6,93.1
			l-13.5,7.2l5.7-8l31.8-44.4h-21.5l0.1-0.1L859.6,21c14.1,5.3,24.2,18.9,24.2,34.9C883.8,76.4,867.1,93.1,846.6,93.1z"/>
	</g>
</g>
</svg>
